<svg width="409" height="409" viewBox="0 0 409 409" fill="none" xmlns="http://www.w3.org/2000/svg">
<g clip-path="url(#clip0_3:243)">
<path d="M11.1303 140.758L140.336 11.5539C147.311 4.5798 156.612 0.738525 166.527 0.738525C176.442 0.738525 185.744 4.57821 192.719 11.5523L397.519 216.354C404.493 223.328 408.335 232.629 408.335 242.544C408.335 252.46 404.493 261.762 397.519 268.735L381.587 284.668C381.585 284.668 381.584 284.67 381.583 284.672C381.581 284.673 381.58 284.675 381.578 284.676L274.501 391.754H289.327C294.021 391.754 297.827 395.559 297.827 400.254C297.827 404.948 294.021 408.754 289.327 408.754H242.157C242.145 408.754 242.135 408.755 242.124 408.755C242.113 408.755 242.102 408.754 242.091 408.754L119.32 408.756C114.626 408.756 110.819 404.95 110.819 400.256C110.819 395.561 114.626 391.756 119.32 391.756L209.744 391.754L11.1295 193.139C-3.31116 178.697 -3.31116 155.198 11.1303 140.758ZM23.1514 181.118L227.953 385.92C231.709 389.676 236.73 391.746 242.093 391.754H242.157C247.518 391.745 252.538 389.676 256.292 385.92L363.55 278.661L166.868 81.9775C163.549 78.6582 163.549 73.2756 166.868 69.9564C170.189 66.6371 175.569 66.6371 178.89 69.9572L375.572 266.641L385.499 256.714C389.261 252.952 391.333 247.92 391.333 242.545C391.333 237.171 389.261 232.138 385.498 228.375L180.698 23.5742C176.935 19.8118 171.902 17.7397 166.527 17.7397C161.153 17.7397 156.12 19.8118 152.357 23.575L106.371 69.5603L303.055 266.246C306.374 269.565 306.374 274.947 303.055 278.268C301.395 279.927 299.219 280.757 297.045 280.757C294.87 280.757 292.694 279.927 291.034 278.267L94.3496 81.5822L23.1514 152.778C15.3389 160.591 15.3398 173.305 23.1514 181.118Z" fill="blue"/>
<path d="M198.897 246.242C202.216 242.923 207.597 242.924 210.919 246.242L277.81 313.132C281.129 316.451 281.129 321.833 277.81 325.154C276.15 326.814 273.974 327.644 271.799 327.644C269.624 327.644 267.449 326.813 265.788 325.154L198.898 258.264C195.578 254.943 195.578 249.561 198.897 246.242Z" fill="blue"/>
<path d="M226.333 309.74L253.767 337.175C257.087 340.494 257.087 345.877 253.767 349.197C252.107 350.856 249.932 351.687 247.757 351.687C245.58 351.687 243.406 350.856 241.746 349.197L214.311 321.762C210.992 318.443 210.992 313.06 214.311 309.74C217.631 306.42 223.011 306.42 226.333 309.74Z" fill="blue"/>
<path d="M201.086 284.496L204.692 288.102C208.013 291.421 208.013 296.803 204.693 300.124C203.034 301.784 200.858 302.614 198.683 302.614C196.508 302.614 194.332 301.784 192.673 300.124L189.067 296.518C185.747 293.199 185.747 287.817 189.066 284.497C192.384 281.178 197.767 281.177 201.086 284.496Z" fill="blue"/>
<path d="M83.9201 131.266C85.514 129.672 87.6761 128.776 89.9306 128.776C92.1852 128.776 94.3465 129.672 95.9412 131.266L132.007 167.331C133.601 168.926 134.497 171.087 134.497 173.342C134.497 175.596 133.601 177.758 132.007 179.352L107.963 203.394C106.303 205.054 104.127 205.883 101.953 205.883C99.7761 205.883 97.602 205.053 95.942 203.394L59.8778 167.33C56.5586 164.011 56.5586 158.628 59.8778 155.309L83.9201 131.266ZM101.953 185.363L113.975 173.342L89.9314 149.299L77.9103 161.321L101.953 185.363Z" fill="blue"/>
<path d="M153.042 64.636C150.866 64.636 148.69 63.8056 147.031 62.1447L143.425 58.537C140.106 55.2169 140.107 49.8343 143.427 46.5158C146.746 43.1974 152.13 43.1982 155.448 46.5182L159.054 50.126C162.373 53.4461 162.372 58.8286 159.052 62.1471C157.392 63.8072 155.218 64.636 153.042 64.636Z" fill="blue"/>
<path d="M322.89 286.084L326.496 289.69C329.816 293.008 329.816 298.391 326.496 301.712C324.836 303.371 322.661 304.201 320.486 304.201C318.311 304.201 316.135 303.371 314.475 301.712L310.869 298.106C307.55 294.786 307.55 289.403 310.869 286.084C314.189 282.764 319.57 282.764 322.89 286.084Z" fill="blue"/>
</g>
<defs>
<clipPath id="clip0_3:243">
<rect width="408.036" height="408.036" fill="black" transform="matrix(-1 0 0 1 408.335 0.732117)"/>
</clipPath>
</defs>
</svg>
