<svg width="31" height="31" viewBox="0 0 31 31" fill="none" xmlns="http://www.w3.org/2000/svg">
<path d="M0.822893 10.6385L10.6391 0.822414C11.169 0.292568 11.8757 0.000732422 12.629 0.000732422C13.3823 0.000732422 14.089 0.292447 14.6189 0.822293L30.1783 16.3818C30.7082 16.9117 31 17.6183 31 18.3716C31 19.1249 30.7082 19.8316 30.1783 20.3614L28.9679 21.5719C28.9677 21.5719 28.9677 21.5721 28.9676 21.5722C28.9674 21.5723 28.9673 21.5724 28.9672 21.5726L20.8321 29.7076H21.9585C22.3152 29.7076 22.6043 29.9967 22.6043 30.3534C22.6043 30.71 22.3152 30.9992 21.9585 30.9992H18.3748C18.374 30.9992 18.3732 30.9993 18.3723 30.9993C18.3715 30.9993 18.3707 30.9992 18.3699 30.9992L9.04243 30.9993C8.68581 30.9993 8.39664 30.7102 8.39664 30.3535C8.39664 29.9969 8.68581 29.7078 9.04243 29.7078L15.9123 29.7076L0.822832 14.6181C-0.274277 13.5209 -0.274277 11.7356 0.822893 10.6385ZM1.73618 13.7049L17.2958 29.2644C17.5811 29.5497 17.9626 29.707 18.37 29.7076H18.3749C18.7822 29.707 19.1635 29.5497 19.4487 29.2644L27.5976 21.1155L12.6549 6.17276C12.4027 5.92058 12.4027 5.51165 12.6549 5.25947C12.9071 5.00729 13.316 5.00729 13.5683 5.25953L28.5109 20.2023L29.2651 19.4481C29.5509 19.1623 29.7084 18.78 29.7084 18.3717C29.7084 17.9634 29.5509 17.581 29.265 17.2951L13.7056 1.73564C13.4197 1.4498 13.0373 1.29238 12.629 1.29238C12.2207 1.29238 11.8383 1.4498 11.5524 1.7357L8.05867 5.22938L23.0015 20.1723C23.2537 20.4245 23.2537 20.8334 23.0015 21.0857C22.8754 21.2118 22.7101 21.2748 22.5449 21.2748C22.3796 21.2748 22.2143 21.2117 22.0882 21.0856L7.14538 6.14273L1.73618 11.5517C1.14264 12.1453 1.1427 13.1112 1.73618 13.7049Z" fill="#3A57E8"/>
</svg>
