<svg width="97" height="94" viewBox="0 0 97 94" fill="none" xmlns="http://www.w3.org/2000/svg">
<path d="M30.366 89.8691C32.1645 91.9654 34.7225 93.2619 37.4771 93.4726C40.2318 93.6832 42.9562 92.7907 45.0535 90.9923L92.489 50.2974C94.5854 48.4979 95.8818 45.9409 96.0925 43.1862C96.3031 40.4315 95.4107 37.7062 93.6122 35.6098L66.4814 3.98905C64.6082 1.80569 62.0274 0.58877 59.3702 0.385562C56.7109 0.182204 53.977 0.993679 51.7938 2.86586L4.36045 43.559C-0.00522846 47.3044 -0.508149 53.8809 3.23726 58.2465L30.366 89.8691ZM57.4538 25.4579L71.0192 41.2688L39.3956 68.3984L25.8313 52.5866L57.4538 25.4579Z" fill="#3A57E8"/>
</svg>
