<svg width="530" height="278" viewBox="0 0 530 278" fill="none" xmlns="http://www.w3.org/2000/svg">
<path d="M337.686 476.524L367.164 451.789L433.849 531.261C434.686 532.259 435.723 532.985 436.789 533.597C421.432 552.55 421.084 580.377 437.336 599.745C455.777 621.722 488.655 624.604 510.646 606.151C532.64 587.696 535.515 554.839 517.062 532.847C500.81 513.479 473.368 508.999 452.02 520.817C451.605 519.659 451.07 518.512 450.232 517.514L383.547 438.042L412.988 413.338C436.882 393.289 443.771 363.522 428.68 345.537C424.897 341.029 418.163 340.434 413.649 344.222C409.133 348.012 408.549 354.747 412.331 359.255C417.884 365.872 415.408 380.331 403.872 392.567L151.683 92.0192C147.873 87.4791 141.155 86.9211 136.647 90.7037L110.483 112.658L19.599 4.3464C15.8286 -0.147006 9.07703 -0.756601 4.56612 3.0285C0.0581263 6.81115 -0.519778 13.5709 3.25064 18.0643L94.1347 126.376L67.9358 148.359C63.4278 152.142 62.8108 158.855 66.6204 163.395L318.81 463.942C304.769 473.128 290.096 473.075 284.555 466.472C280.773 461.964 274.045 461.364 269.525 465.157C264.999 468.954 264.424 475.682 268.207 480.19C283.313 498.163 313.806 496.562 337.686 476.524ZM500.696 546.58C511.559 559.526 509.877 578.937 496.913 589.815C483.947 600.695 464.562 598.991 453.685 586.027C442.804 573.061 444.504 553.665 457.459 542.795C470.405 531.931 489.816 533.613 500.696 546.58ZM142.162 113.91L154.771 128.937L127.362 151.936C122.854 155.719 122.236 162.437 126.041 166.972C129.804 171.456 136.571 172.067 141.079 168.285L168.489 145.285L189.858 170.752L162.448 193.751C157.94 197.534 157.32 204.249 161.13 208.789C164.896 213.277 171.661 213.885 176.169 210.102L203.578 187.103L224.933 212.552L197.523 235.551C193.015 239.334 192.429 246.09 196.205 250.59C199.973 255.08 206.733 255.682 211.241 251.9L238.651 228.9L260.012 254.358L232.603 277.357C228.095 281.14 227.504 287.891 231.284 292.396C235.059 296.895 241.815 297.491 246.323 293.709L273.733 270.709L295.106 296.182L267.697 319.181C263.189 322.964 262.586 329.7 266.376 334.217C270.161 338.727 276.907 339.312 281.415 335.53L308.824 312.53L330.179 337.979L302.769 360.979C298.261 364.761 297.665 371.506 301.451 376.017C305.243 380.537 311.979 381.11 316.487 377.327L343.897 354.327L387.81 406.661L335.464 450.584L89.8319 157.85L142.162 113.91Z" fill="#3A57E8"/>
</svg>
