<svg width="263" height="376" viewBox="0 0 263 376" fill="none" xmlns="http://www.w3.org/2000/svg">
<path d="M91.4135 362.728L249.738 204.401C258.284 195.854 262.991 184.457 262.991 172.307C262.991 160.157 258.286 148.759 249.74 140.212L-1.22034 -110.747C-9.76721 -119.293 -21.1637 -124 -33.3141 -124C-45.4645 -124 -56.8629 -119.293 -65.4078 -110.747L-84.9313 -91.2236C-84.9323 -91.2217 -84.9342 -91.2207 -84.9362 -91.2188C-84.9381 -91.2168 -84.9401 -91.2148 -84.942 -91.2129L-216.153 39.998L-216.153 21.8301C-216.153 16.0781 -220.816 11.4141 -226.569 11.4141C-232.321 11.4141 -236.985 16.0781 -236.985 21.8301L-236.985 79.6318C-236.985 79.6455 -236.986 79.6582 -236.986 79.6719C-236.986 79.6855 -236.985 79.6982 -236.985 79.7119L-236.987 230.154C-236.987 235.906 -232.323 240.57 -226.571 240.57C-220.818 240.57 -216.155 235.906 -216.155 230.154L-216.153 119.35L27.226 362.729C44.9232 380.424 73.7181 380.424 91.4135 362.728ZM41.9564 347.997L-209.005 97.0361C-213.606 92.4336 -216.143 86.2812 -216.153 79.71V79.6309C-216.142 73.0615 -213.606 66.9111 -209.005 62.3105L-77.571 -69.1221L163.442 171.889C167.509 175.956 174.105 175.956 178.172 171.889C182.24 167.82 182.24 161.227 178.171 157.157L-62.8414 -83.8535L-50.6774 -96.0176C-46.067 -100.628 -39.901 -103.167 -33.3151 -103.167C-26.7292 -103.167 -20.5622 -100.628 -15.9508 -96.0166L235.008 154.942C239.619 159.554 242.158 165.721 242.158 172.307C242.158 178.893 239.619 185.06 235.007 189.671L178.658 246.021L-62.358 5.00781C-66.4244 0.940437 -73.0201 0.940437 -77.0895 5.00781C-79.1227 7.04199 -80.1393 9.70801 -80.1393 12.373C-80.1393 15.0381 -79.1217 17.7041 -77.0885 19.7383L163.926 260.752L76.684 347.997C67.1097 357.57 51.5306 357.569 41.9564 347.997Z" fill="#3A57E8"/>
</svg>
